<mxfile host="app.diagrams.net" modified="2023-09-19T07:33:35.809Z" agent="Mozilla/5.0 (Windows NT 10.0; Win64; x64) AppleWebKit/537.36 (KHTML, like Gecko) Chrome/116.0.0.0 Safari/537.36" etag="HKUvz8Wd_D9X4A8iGALM" version="21.7.5" type="github">
  <diagram name="Page-1" id="c37626ed-c26b-45fb-9056-f9ebc6bb27b6">
    <mxGraphModel dx="1562" dy="830" grid="1" gridSize="10" guides="1" tooltips="1" connect="1" arrows="1" fold="1" page="1" pageScale="1" pageWidth="1100" pageHeight="850" background="none" math="0" shadow="0">
      <root>
        <mxCell id="0" />
        <mxCell id="1" parent="0" />
        <mxCell id="1c7a67bf8fd3230f-80" value="&lt;font style=&quot;font-size: 26px;&quot;&gt;酒仙桥机房APS激活系统拓扑图&lt;/font&gt;" style="whiteSpace=wrap;html=1;rounded=0;shadow=0;comic=0;strokeWidth=1;fontFamily=Verdana;fontSize=14;fillColor=#f5f5f5;strokeColor=none;fontStyle=1;verticalAlign=top;" parent="1" vertex="1">
          <mxGeometry x="130" y="810" width="610" height="750" as="geometry" />
        </mxCell>
        <mxCell id="Sr2rGQGsJkISY2OutYPW-2" value="&lt;font style=&quot;font-size: 18px;&quot;&gt;APS 1.0&lt;/font&gt;" style="shape=mxgraph.cisco.servers.standard_host;sketch=0;html=1;pointerEvents=1;dashed=0;fillColor=#036897;strokeColor=#ffffff;strokeWidth=3;verticalLabelPosition=bottom;verticalAlign=top;align=center;outlineConnect=0;fontSize=18;" parent="1" vertex="1">
          <mxGeometry x="210" y="910" width="43" height="62" as="geometry" />
        </mxCell>
        <mxCell id="Sr2rGQGsJkISY2OutYPW-3" value="KMS Server" style="shape=mxgraph.cisco.servers.standard_host;sketch=0;html=1;pointerEvents=1;dashed=0;fillColor=#036897;strokeColor=#ffffff;strokeWidth=3;verticalLabelPosition=bottom;verticalAlign=top;align=center;outlineConnect=0;fontSize=18;" parent="1" vertex="1">
          <mxGeometry x="210" y="1098.5" width="43" height="62" as="geometry" />
        </mxCell>
        <mxCell id="Sr2rGQGsJkISY2OutYPW-4" value="APS2.0" style="shape=mxgraph.cisco.servers.standard_host;sketch=0;html=1;pointerEvents=1;dashed=0;fillColor=#036897;strokeColor=#ffffff;strokeWidth=3;verticalLabelPosition=bottom;verticalAlign=top;align=center;outlineConnect=0;fontSize=18;" parent="1" vertex="1">
          <mxGeometry x="355.5" y="910" width="43" height="62" as="geometry" />
        </mxCell>
        <mxCell id="Sr2rGQGsJkISY2OutYPW-5" value="APS3.0" style="shape=mxgraph.cisco.servers.standard_host;sketch=0;html=1;pointerEvents=1;dashed=0;fillColor=#036897;strokeColor=#ffffff;strokeWidth=3;verticalLabelPosition=bottom;verticalAlign=top;align=center;outlineConnect=0;fontSize=18;" parent="1" vertex="1">
          <mxGeometry x="510" y="910" width="43" height="62" as="geometry" />
        </mxCell>
        <mxCell id="Sr2rGQGsJkISY2OutYPW-10" value="MYSQL Master" style="shape=mxgraph.cisco.servers.storage_server;sketch=0;html=1;pointerEvents=1;dashed=0;fillColor=#036897;strokeColor=#ffffff;strokeWidth=3;verticalLabelPosition=bottom;verticalAlign=top;align=center;outlineConnect=0;fontSize=18;" parent="1" vertex="1">
          <mxGeometry x="350" y="1098.5" width="54" height="83" as="geometry" />
        </mxCell>
        <mxCell id="Sr2rGQGsJkISY2OutYPW-11" value="MYSQL Slave L1" style="shape=mxgraph.cisco.servers.storage_server;sketch=0;html=1;pointerEvents=1;dashed=0;fillColor=#036897;strokeColor=#ffffff;strokeWidth=3;verticalLabelPosition=bottom;verticalAlign=top;align=center;outlineConnect=0;fontSize=18;" parent="1" vertex="1">
          <mxGeometry x="350" y="1240" width="54" height="83" as="geometry" />
        </mxCell>
        <mxCell id="Sr2rGQGsJkISY2OutYPW-14" value="" style="endArrow=none;html=1;exitX=0.5;exitY=0;exitDx=0;exitDy=0;exitPerimeter=0;strokeWidth=3;rounded=1;strokeColor=#000000;fontSize=18;" parent="1" source="Sr2rGQGsJkISY2OutYPW-3" target="Sr2rGQGsJkISY2OutYPW-2" edge="1">
          <mxGeometry width="50" height="50" relative="1" as="geometry">
            <mxPoint x="260" y="1032" as="sourcePoint" />
            <mxPoint x="310" y="982" as="targetPoint" />
          </mxGeometry>
        </mxCell>
        <mxCell id="Sr2rGQGsJkISY2OutYPW-12" value="MYSQL Slave L2" style="shape=mxgraph.cisco.servers.storage_server;sketch=0;html=1;pointerEvents=1;dashed=0;fillColor=#036897;strokeColor=#ffffff;strokeWidth=3;verticalLabelPosition=bottom;verticalAlign=top;align=center;outlineConnect=0;fontSize=18;" parent="1" vertex="1">
          <mxGeometry x="350" y="1390" width="54" height="83" as="geometry" />
        </mxCell>
        <mxCell id="Sr2rGQGsJkISY2OutYPW-15" value="" style="endArrow=none;html=1;strokeWidth=3;rounded=1;fontSize=18;" parent="1" source="Sr2rGQGsJkISY2OutYPW-3" target="Sr2rGQGsJkISY2OutYPW-4" edge="1">
          <mxGeometry width="50" height="50" relative="1" as="geometry">
            <mxPoint x="270" y="1090" as="sourcePoint" />
            <mxPoint x="320" y="992" as="targetPoint" />
          </mxGeometry>
        </mxCell>
        <mxCell id="Sr2rGQGsJkISY2OutYPW-16" value="" style="endArrow=none;html=1;exitX=0.5;exitY=0;exitDx=0;exitDy=0;exitPerimeter=0;strokeWidth=3;rounded=1;fontSize=18;" parent="1" source="Sr2rGQGsJkISY2OutYPW-10" target="Sr2rGQGsJkISY2OutYPW-2" edge="1">
          <mxGeometry width="50" height="50" relative="1" as="geometry">
            <mxPoint x="393" y="1080" as="sourcePoint" />
            <mxPoint x="441" y="970" as="targetPoint" />
          </mxGeometry>
        </mxCell>
        <mxCell id="Sr2rGQGsJkISY2OutYPW-17" value="" style="endArrow=none;html=1;strokeWidth=3;rounded=1;fontSize=18;" parent="1" source="Sr2rGQGsJkISY2OutYPW-24" edge="1">
          <mxGeometry width="50" height="50" relative="1" as="geometry">
            <mxPoint x="512.7672955974845" y="1100" as="sourcePoint" />
            <mxPoint x="518" y="972" as="targetPoint" />
          </mxGeometry>
        </mxCell>
        <mxCell id="Sr2rGQGsJkISY2OutYPW-18" value="" style="endArrow=none;html=1;strokeWidth=3;rounded=1;exitX=0.5;exitY=0;exitDx=0;exitDy=0;exitPerimeter=0;fontSize=18;" parent="1" source="Sr2rGQGsJkISY2OutYPW-10" target="Sr2rGQGsJkISY2OutYPW-4" edge="1">
          <mxGeometry width="50" height="50" relative="1" as="geometry">
            <mxPoint x="302" y="1132" as="sourcePoint" />
            <mxPoint x="350" y="1022" as="targetPoint" />
          </mxGeometry>
        </mxCell>
        <mxCell id="Sr2rGQGsJkISY2OutYPW-20" value="" style="endArrow=none;html=1;rounded=0;strokeWidth=3;fontSize=18;" parent="1" source="Sr2rGQGsJkISY2OutYPW-12" target="Sr2rGQGsJkISY2OutYPW-11" edge="1">
          <mxGeometry width="50" height="50" relative="1" as="geometry">
            <mxPoint x="620" y="1180" as="sourcePoint" />
            <mxPoint x="670" y="1130" as="targetPoint" />
          </mxGeometry>
        </mxCell>
        <mxCell id="Sr2rGQGsJkISY2OutYPW-21" value="" style="endArrow=none;html=1;rounded=0;strokeWidth=3;fontSize=18;" parent="1" source="Sr2rGQGsJkISY2OutYPW-10" target="Sr2rGQGsJkISY2OutYPW-11" edge="1">
          <mxGeometry width="50" height="50" relative="1" as="geometry">
            <mxPoint x="620" y="1180" as="sourcePoint" />
            <mxPoint x="670" y="1130" as="targetPoint" />
          </mxGeometry>
        </mxCell>
        <mxCell id="Sr2rGQGsJkISY2OutYPW-22" value="" style="endArrow=none;html=1;rounded=0;exitX=0.5;exitY=0;exitDx=0;exitDy=0;exitPerimeter=0;strokeWidth=3;fontSize=18;" parent="1" source="Sr2rGQGsJkISY2OutYPW-10" edge="1">
          <mxGeometry width="50" height="50" relative="1" as="geometry">
            <mxPoint x="810" y="1140" as="sourcePoint" />
            <mxPoint x="510" y="970" as="targetPoint" />
          </mxGeometry>
        </mxCell>
        <mxCell id="Sr2rGQGsJkISY2OutYPW-23" value="" style="endArrow=none;html=1;rounded=0;entryX=0.5;entryY=1;entryDx=0;entryDy=0;entryPerimeter=0;strokeWidth=3;fontSize=18;" parent="1" source="Sr2rGQGsJkISY2OutYPW-25" target="Sr2rGQGsJkISY2OutYPW-5" edge="1">
          <mxGeometry width="50" height="50" relative="1" as="geometry">
            <mxPoint x="631.5" y="1100" as="sourcePoint" />
            <mxPoint x="600" y="1030" as="targetPoint" />
          </mxGeometry>
        </mxCell>
        <mxCell id="Sr2rGQGsJkISY2OutYPW-24" value="HSM密码机" style="shape=mxgraph.cisco.security.lock;sketch=0;html=1;pointerEvents=1;dashed=0;fillColor=#036897;strokeColor=#ffffff;strokeWidth=2;verticalLabelPosition=bottom;verticalAlign=top;align=center;outlineConnect=0;fontSize=18;" parent="1" vertex="1">
          <mxGeometry x="490" y="1098.5" width="53" height="61" as="geometry" />
        </mxCell>
        <mxCell id="Sr2rGQGsJkISY2OutYPW-25" value="SQL Server&amp;nbsp;" style="shape=mxgraph.cisco.storage.relational_database;sketch=0;html=1;pointerEvents=1;dashed=0;fillColor=#036897;strokeColor=#ffffff;strokeWidth=2;verticalLabelPosition=bottom;verticalAlign=top;align=center;outlineConnect=0;fontSize=18;" parent="1" vertex="1">
          <mxGeometry x="600" y="1098.5" width="66" height="53" as="geometry" />
        </mxCell>
        <mxCell id="Sr2rGQGsJkISY2OutYPW-26" value="&lt;font style=&quot;font-size: 26px;&quot;&gt;亦庄机房APS灾备激活系统拓扑图&lt;/font&gt;" style="whiteSpace=wrap;html=1;rounded=0;shadow=0;comic=0;strokeWidth=1;fontFamily=Verdana;fontSize=14;fillColor=#f5f5f5;strokeColor=#003CFF;fontStyle=1;verticalAlign=top;dashed=1;perimeterSpacing=5;" parent="1" vertex="1">
          <mxGeometry x="830" y="810" width="610" height="750" as="geometry" />
        </mxCell>
        <mxCell id="Sr2rGQGsJkISY2OutYPW-27" value="&lt;font style=&quot;font-size: 18px;&quot;&gt;APS 1.0&lt;/font&gt;" style="shape=mxgraph.cisco.servers.standard_host;sketch=0;html=1;pointerEvents=1;dashed=0;fillColor=#036897;strokeColor=#ffffff;strokeWidth=3;verticalLabelPosition=bottom;verticalAlign=top;align=center;outlineConnect=0;fontSize=18;" parent="1" vertex="1">
          <mxGeometry x="910" y="910" width="43" height="62" as="geometry" />
        </mxCell>
        <mxCell id="Sr2rGQGsJkISY2OutYPW-28" value="KMS Server" style="shape=mxgraph.cisco.servers.standard_host;sketch=0;html=1;pointerEvents=1;dashed=0;fillColor=#036897;strokeColor=#ffffff;strokeWidth=3;verticalLabelPosition=bottom;verticalAlign=top;align=center;outlineConnect=0;fontSize=18;" parent="1" vertex="1">
          <mxGeometry x="910" y="1098.5" width="43" height="62" as="geometry" />
        </mxCell>
        <mxCell id="Sr2rGQGsJkISY2OutYPW-29" value="APS2.0" style="shape=mxgraph.cisco.servers.standard_host;sketch=0;html=1;pointerEvents=1;dashed=0;fillColor=#036897;strokeColor=#ffffff;strokeWidth=3;verticalLabelPosition=bottom;verticalAlign=top;align=center;outlineConnect=0;fontSize=18;" parent="1" vertex="1">
          <mxGeometry x="1055.5" y="910" width="43" height="62" as="geometry" />
        </mxCell>
        <mxCell id="Sr2rGQGsJkISY2OutYPW-30" value="APS3.0" style="shape=mxgraph.cisco.servers.standard_host;sketch=0;html=1;pointerEvents=1;dashed=0;fillColor=#036897;strokeColor=#ffffff;strokeWidth=3;verticalLabelPosition=bottom;verticalAlign=top;align=center;outlineConnect=0;fontSize=18;" parent="1" vertex="1">
          <mxGeometry x="1210" y="910" width="43" height="62" as="geometry" />
        </mxCell>
        <mxCell id="Sr2rGQGsJkISY2OutYPW-31" value="MYSQL Master" style="shape=mxgraph.cisco.servers.storage_server;sketch=0;html=1;pointerEvents=1;dashed=0;fillColor=#036897;strokeColor=#ffffff;strokeWidth=3;verticalLabelPosition=bottom;verticalAlign=top;align=center;outlineConnect=0;fontSize=18;" parent="1" vertex="1">
          <mxGeometry x="1050" y="1098.5" width="54" height="83" as="geometry" />
        </mxCell>
        <mxCell id="Sr2rGQGsJkISY2OutYPW-32" value="MYSQL Slave L1" style="shape=mxgraph.cisco.servers.storage_server;sketch=0;html=1;pointerEvents=1;dashed=0;fillColor=#036897;strokeColor=#ffffff;strokeWidth=3;verticalLabelPosition=bottom;verticalAlign=top;align=center;outlineConnect=0;fontSize=18;" parent="1" vertex="1">
          <mxGeometry x="1050" y="1240" width="54" height="83" as="geometry" />
        </mxCell>
        <mxCell id="Sr2rGQGsJkISY2OutYPW-33" value="" style="endArrow=none;html=1;exitX=0.5;exitY=0;exitDx=0;exitDy=0;exitPerimeter=0;strokeWidth=3;rounded=1;strokeColor=#000000;fontSize=18;" parent="1" source="Sr2rGQGsJkISY2OutYPW-28" target="Sr2rGQGsJkISY2OutYPW-27" edge="1">
          <mxGeometry width="50" height="50" relative="1" as="geometry">
            <mxPoint x="960" y="1032" as="sourcePoint" />
            <mxPoint x="1010" y="982" as="targetPoint" />
          </mxGeometry>
        </mxCell>
        <mxCell id="Sr2rGQGsJkISY2OutYPW-34" value="MYSQL Slave L2" style="shape=mxgraph.cisco.servers.storage_server;sketch=0;html=1;pointerEvents=1;dashed=0;fillColor=#036897;strokeColor=#ffffff;strokeWidth=3;verticalLabelPosition=bottom;verticalAlign=top;align=center;outlineConnect=0;fontSize=18;" parent="1" vertex="1">
          <mxGeometry x="1050" y="1390" width="54" height="83" as="geometry" />
        </mxCell>
        <mxCell id="Sr2rGQGsJkISY2OutYPW-35" value="" style="endArrow=none;html=1;strokeWidth=3;rounded=1;fontSize=18;" parent="1" source="Sr2rGQGsJkISY2OutYPW-28" target="Sr2rGQGsJkISY2OutYPW-29" edge="1">
          <mxGeometry width="50" height="50" relative="1" as="geometry">
            <mxPoint x="970" y="1090" as="sourcePoint" />
            <mxPoint x="1020" y="992" as="targetPoint" />
          </mxGeometry>
        </mxCell>
        <mxCell id="Sr2rGQGsJkISY2OutYPW-36" value="" style="endArrow=none;html=1;exitX=0.5;exitY=0;exitDx=0;exitDy=0;exitPerimeter=0;strokeWidth=3;rounded=1;fontSize=18;" parent="1" source="Sr2rGQGsJkISY2OutYPW-31" target="Sr2rGQGsJkISY2OutYPW-27" edge="1">
          <mxGeometry width="50" height="50" relative="1" as="geometry">
            <mxPoint x="1093" y="1080" as="sourcePoint" />
            <mxPoint x="1141" y="970" as="targetPoint" />
          </mxGeometry>
        </mxCell>
        <mxCell id="Sr2rGQGsJkISY2OutYPW-37" value="" style="endArrow=none;html=1;strokeWidth=3;rounded=1;fontSize=18;" parent="1" source="Sr2rGQGsJkISY2OutYPW-43" edge="1">
          <mxGeometry width="50" height="50" relative="1" as="geometry">
            <mxPoint x="1212.7672955974845" y="1100" as="sourcePoint" />
            <mxPoint x="1218" y="972" as="targetPoint" />
          </mxGeometry>
        </mxCell>
        <mxCell id="Sr2rGQGsJkISY2OutYPW-38" value="" style="endArrow=none;html=1;strokeWidth=3;rounded=1;exitX=0.5;exitY=0;exitDx=0;exitDy=0;exitPerimeter=0;fontSize=18;" parent="1" source="Sr2rGQGsJkISY2OutYPW-31" target="Sr2rGQGsJkISY2OutYPW-29" edge="1">
          <mxGeometry width="50" height="50" relative="1" as="geometry">
            <mxPoint x="1002" y="1132" as="sourcePoint" />
            <mxPoint x="1050" y="1022" as="targetPoint" />
          </mxGeometry>
        </mxCell>
        <mxCell id="Sr2rGQGsJkISY2OutYPW-39" value="" style="endArrow=none;html=1;rounded=0;strokeWidth=3;fontSize=18;" parent="1" source="Sr2rGQGsJkISY2OutYPW-34" target="Sr2rGQGsJkISY2OutYPW-32" edge="1">
          <mxGeometry width="50" height="50" relative="1" as="geometry">
            <mxPoint x="1320" y="1180" as="sourcePoint" />
            <mxPoint x="1370" y="1130" as="targetPoint" />
          </mxGeometry>
        </mxCell>
        <mxCell id="Sr2rGQGsJkISY2OutYPW-40" value="" style="endArrow=none;html=1;rounded=0;strokeWidth=3;fontSize=18;" parent="1" source="Sr2rGQGsJkISY2OutYPW-31" target="Sr2rGQGsJkISY2OutYPW-32" edge="1">
          <mxGeometry width="50" height="50" relative="1" as="geometry">
            <mxPoint x="1320" y="1180" as="sourcePoint" />
            <mxPoint x="1370" y="1130" as="targetPoint" />
          </mxGeometry>
        </mxCell>
        <mxCell id="Sr2rGQGsJkISY2OutYPW-41" value="" style="endArrow=none;html=1;rounded=0;exitX=0.5;exitY=0;exitDx=0;exitDy=0;exitPerimeter=0;strokeWidth=3;fontSize=18;" parent="1" source="Sr2rGQGsJkISY2OutYPW-31" edge="1">
          <mxGeometry width="50" height="50" relative="1" as="geometry">
            <mxPoint x="1510" y="1140" as="sourcePoint" />
            <mxPoint x="1210" y="970" as="targetPoint" />
          </mxGeometry>
        </mxCell>
        <mxCell id="Sr2rGQGsJkISY2OutYPW-42" value="" style="endArrow=none;html=1;rounded=0;entryX=0.5;entryY=1;entryDx=0;entryDy=0;entryPerimeter=0;strokeWidth=3;fontSize=18;" parent="1" source="Sr2rGQGsJkISY2OutYPW-44" target="Sr2rGQGsJkISY2OutYPW-30" edge="1">
          <mxGeometry width="50" height="50" relative="1" as="geometry">
            <mxPoint x="1331.5" y="1100" as="sourcePoint" />
            <mxPoint x="1300" y="1030" as="targetPoint" />
          </mxGeometry>
        </mxCell>
        <mxCell id="Sr2rGQGsJkISY2OutYPW-43" value="HSM密码机" style="shape=mxgraph.cisco.security.lock;sketch=0;html=1;pointerEvents=1;dashed=0;fillColor=#036897;strokeColor=#ffffff;strokeWidth=2;verticalLabelPosition=bottom;verticalAlign=top;align=center;outlineConnect=0;fontSize=18;" parent="1" vertex="1">
          <mxGeometry x="1190" y="1098.5" width="53" height="61" as="geometry" />
        </mxCell>
        <mxCell id="Sr2rGQGsJkISY2OutYPW-44" value="SQL Server&amp;nbsp;" style="shape=mxgraph.cisco.storage.relational_database;sketch=0;html=1;pointerEvents=1;dashed=0;fillColor=#036897;strokeColor=#ffffff;strokeWidth=2;verticalLabelPosition=bottom;verticalAlign=top;align=center;outlineConnect=0;fontSize=18;" parent="1" vertex="1">
          <mxGeometry x="1300" y="1098.5" width="66" height="53" as="geometry" />
        </mxCell>
        <mxCell id="Sr2rGQGsJkISY2OutYPW-50" value="" style="curved=1;endArrow=classic;html=1;rounded=0;strokeWidth=3;dashed=1;strokeColor=#000000;" parent="1" source="Sr2rGQGsJkISY2OutYPW-31" target="Sr2rGQGsJkISY2OutYPW-10" edge="1">
          <mxGeometry width="50" height="50" relative="1" as="geometry">
            <mxPoint x="770" y="1160" as="sourcePoint" />
            <mxPoint x="820" y="1110" as="targetPoint" />
            <Array as="points">
              <mxPoint x="770" y="1350" />
            </Array>
          </mxGeometry>
        </mxCell>
        <mxCell id="Sr2rGQGsJkISY2OutYPW-52" value="数据复制" style="edgeLabel;html=1;align=center;verticalAlign=middle;resizable=0;points=[];fontColor=#003CFF;" parent="Sr2rGQGsJkISY2OutYPW-50" vertex="1" connectable="0">
          <mxGeometry x="-0.2551" y="-76" relative="1" as="geometry">
            <mxPoint x="5" as="offset" />
          </mxGeometry>
        </mxCell>
        <mxCell id="Sr2rGQGsJkISY2OutYPW-51" value="" style="curved=1;endArrow=classic;html=1;rounded=0;strokeWidth=3;dashed=1;strokeColor=#000000;" parent="1" source="Sr2rGQGsJkISY2OutYPW-10" target="Sr2rGQGsJkISY2OutYPW-31" edge="1">
          <mxGeometry width="50" height="50" relative="1" as="geometry">
            <mxPoint x="770" y="1160" as="sourcePoint" />
            <mxPoint x="820" y="1110" as="targetPoint" />
            <Array as="points">
              <mxPoint x="610" y="1290" />
              <mxPoint x="840" y="1350" />
            </Array>
          </mxGeometry>
        </mxCell>
        <mxCell id="Sr2rGQGsJkISY2OutYPW-53" value="数据复制" style="edgeLabel;html=1;align=center;verticalAlign=middle;resizable=0;points=[];fontColor=#003CFF;" parent="Sr2rGQGsJkISY2OutYPW-51" vertex="1" connectable="0">
          <mxGeometry x="0.0357" y="7" relative="1" as="geometry">
            <mxPoint x="21" as="offset" />
          </mxGeometry>
        </mxCell>
        <mxCell id="vmyQo9zEXmhNGHzLm8JV-6" value="" style="endArrow=classic;html=1;rounded=0;dashed=1;strokeWidth=3;strokeColor=#000000;" edge="1" parent="1" source="Sr2rGQGsJkISY2OutYPW-25" target="Sr2rGQGsJkISY2OutYPW-44">
          <mxGeometry width="50" height="50" relative="1" as="geometry">
            <mxPoint x="770" y="1260" as="sourcePoint" />
            <mxPoint x="820" y="1210" as="targetPoint" />
            <Array as="points">
              <mxPoint x="633" y="1390" />
              <mxPoint x="1333" y="1380" />
            </Array>
          </mxGeometry>
        </mxCell>
        <mxCell id="vmyQo9zEXmhNGHzLm8JV-7" value="&lt;font&gt;数据复制&lt;/font&gt;" style="edgeLabel;html=1;align=center;verticalAlign=middle;resizable=0;points=[];fontColor=#003CFF;" vertex="1" connectable="0" parent="vmyQo9zEXmhNGHzLm8JV-6">
          <mxGeometry x="-0.1441" y="-4" relative="1" as="geometry">
            <mxPoint as="offset" />
          </mxGeometry>
        </mxCell>
      </root>
    </mxGraphModel>
  </diagram>
</mxfile>
